<?xml version="1.0" standalone="no"?><!DOCTYPE svg PUBLIC "-//W3C//DTD SVG 1.1//EN" "http://www.w3.org/Graphics/SVG/1.1/DTD/svg11.dtd"><svg t="1554537710497" class="icon" style="" viewBox="0 0 1024 1024" version="1.1" xmlns="http://www.w3.org/2000/svg" p-id="2468" xmlns:xlink="http://www.w3.org/1999/xlink" width="200" height="200"><defs><style type="text/css"></style></defs><path d="M512 998.4c-268.288 0-486.4-218.112-486.4-486.4S243.712 25.6 512 25.6s486.4 218.112 486.4 486.4-218.112 486.4-486.4 486.4z m-66.56-271.36c0 36.864 29.696 66.56 66.56 66.56s66.56-29.696 66.56-66.56v-148.48h148.48c36.864 0 66.56-29.696 66.56-66.56s-29.696-66.56-66.56-66.56h-148.48V296.96c0-36.864-29.696-66.56-66.56-66.56s-66.56 29.696-66.56 66.56v148.48H296.96c-36.864 0-66.56 29.696-66.56 66.56s29.696 66.56 66.56 66.56h148.48v148.48z" p-id="2469" fill="#1296db"></path><path d="M512 51.2c253.952 0 460.8 206.848 460.8 460.8s-206.848 460.8-460.8 460.8-460.8-206.848-460.8-460.8 206.848-460.8 460.8-460.8M419.84 419.84H296.96c-50.688 0-92.16 41.472-92.16 92.16s41.472 92.16 92.16 92.16h122.88v122.88c0 50.688 41.472 92.16 92.16 92.16s92.16-41.472 92.16-92.16v-122.88h122.88c50.688 0 92.16-41.472 92.16-92.16s-41.472-92.16-92.16-92.16h-122.88V296.96c0-50.688-41.472-92.16-92.16-92.16s-92.16 41.472-92.16 92.16v122.88m92.16-419.84C229.376 0 0 229.376 0 512s229.376 512 512 512 512-229.376 512-512S794.624 0 512 0zM296.96 552.96c-22.528 0-40.96-18.432-40.96-40.96s18.432-40.96 40.96-40.96h174.08V296.96c0-22.528 18.432-40.96 40.96-40.96s40.96 18.432 40.96 40.96v174.08h174.08c22.528 0 40.96 18.432 40.96 40.96s-18.432 40.96-40.96 40.96h-174.08v174.08c0 22.528-18.432 40.96-40.96 40.96s-40.96-18.432-40.96-40.96v-174.08H296.96z" p-id="2470" fill="#1296db"></path></svg>