<?xml version="1.0" standalone="no"?><!DOCTYPE svg PUBLIC "-//W3C//DTD SVG 1.1//EN" "http://www.w3.org/Graphics/SVG/1.1/DTD/svg11.dtd"><svg t="1554606602101" class="icon" style="" viewBox="0 0 1024 1024" version="1.1" xmlns="http://www.w3.org/2000/svg" p-id="5428" xmlns:xlink="http://www.w3.org/1999/xlink" width="200" height="200"><defs><style type="text/css"></style></defs><path d="M1024 512c0 282.77248-229.22752 512-511.99488 512C229.23264 1024 0 794.77248 0 512 0 229.23264 229.23264 0 512.00512 0 794.77248 0 1024 229.23264 1024 512zM859.61216 334.84288c9.22112-23.88992 9.4208-42.5728 0.56832-55.47008-4.80768-7.02464-14.59712-15.38048-34.06848-15.38048-32.0256 0.49152-448.55808 0-452.03968 0l-0.02048 0c-8.16128 0-14.7712 6.5792-14.79168 14.76608-0.0256 8.1664 6.58432 14.7712 14.76608 14.79168 14.1056 0.03072 420.23424 0.47104 452.28032 0 4.82304 0 8.35584 0.96256 9.46688 2.53952 1.67936 2.46272 2.7904 11.14624-3.3024 27.09504-14.6176 30.83776-83.21024 189.45536-91.9808 203.24352-1.3312 2.08384-2.51904 4.11648-3.67104 6.08256-5.69856 9.80992-7.61856 13.09184-26.79808 13.09184L383.02208 545.60256c-17.67936-66.7136-79.65696-286.49472-82.5856-297.2416-0.19968-0.6912-0.41984-1.3056-0.6912-1.95072-10.30656-24.03328-34.24256-25.39008-59.61216-25.39008L172.11904 221.02016c-8.16128 0-14.79168 6.6048-14.79168 14.76608s6.6304 14.79168 14.79168 14.79168l68.01408 0c12.96896 0 26.30656 8.95488 32.0512 21.4016 5.3504 19.59936 80.09728 269.75232 86.26176 296.86784 11.19232 49.18272 41.09312 81.28512 82.09408 81.28512l276.21376 0c8.18688 0 14.78656-6.63552 14.78656-14.79168 0-8.1664-6.59968-14.80192-14.78656-14.80192L440.53504 620.53888c-28.96896 0-42.87488-25.06752-49.57696-45.37856l319.05792 0c33.46944 0 43.16672-12.03712 52.34176-27.76064 0.96256-1.62304 1.9712-3.3536 3.07712-5.10464C774.85056 527.53408 843.9552 367.97952 859.61216 334.84288L859.61216 334.84288zM432.69632 664.80128c-38.08768 0-69.05344 31.01696-69.07904 69.07904 0 38.08256 30.99136 69.09952 69.07904 69.09952 38.08768 0 69.07904-31.01696 69.07904-69.09952C501.77536 695.78752 470.784 664.80128 432.69632 664.80128L432.69632 664.80128zM432.69632 774.59968c-22.41024 0-40.64768-18.25792-40.64768-40.69888 0-22.43072 18.24256-40.66816 40.64768-40.66816 22.43584 0 40.6784 18.24256 40.6784 40.66816C473.37472 756.34176 455.13216 774.59968 432.69632 774.59968L432.69632 774.59968zM713.73824 664.80128c-38.08768 0-69.04832 31.01696-69.0688 69.07904 0 38.08256 30.98112 69.09952 69.0688 69.09952s69.07392-31.01696 69.07392-69.09952C782.81728 695.78752 751.83104 664.80128 713.73824 664.80128L713.73824 664.80128zM713.73824 774.59968c-22.41024 0-40.64768-18.25792-40.64768-40.69888 0-22.43072 18.24256-40.66816 40.64768-40.66816 22.43072 0 40.6784 18.24256 40.6784 40.66816C754.42176 756.34176 736.16896 774.59968 713.73824 774.59968L713.73824 774.59968z" p-id="5429" fill="#1296db"></path></svg>