<?xml version="1.0" standalone="no"?><!DOCTYPE svg PUBLIC "-//W3C//DTD SVG 1.1//EN" "http://www.w3.org/Graphics/SVG/1.1/DTD/svg11.dtd"><svg t="1553515818039" class="icon" style="" viewBox="0 0 1124 1024" version="1.1" xmlns="http://www.w3.org/2000/svg" p-id="5385" xmlns:xlink="http://www.w3.org/1999/xlink" width="219.53125" height="200"><defs><style type="text/css"></style></defs><path d="M1073.881601 387.684107a54.70156 54.70156 0 0 1-27.35078-6.837695l-462.364933-268.037642a44.650148 44.650148 0 0 0-44.171509 0L77.561069 380.504528A53.812659 53.812659 0 0 1 6.859303 365.461599c-14.222406-21.470362-5.401779-49.504911 17.914761-63.043548l510.092044-295.183291a55.316952 55.316952 0 0 1 54.701559 0l510.228798 295.320045c23.111409 13.67539 31.863658 41.02617 17.914761 62.564909a51.898105 51.898105 0 0 1-43.829625 22.564393z" p-id="5386" fill="#d81e06"></path><path d="M848.306045 1024H275.9226a129.916204 129.916204 0 0 1-129.916204-129.916204V437.667657a47.863865 47.863865 0 1 1 95.727729 0v456.142631a34.188475 34.188475 0 0 0 34.188475 34.188475h572.383445a34.188475 34.188475 0 0 0 34.188474-34.188475V437.667657a47.863865 47.863865 0 1 1 95.72773 0v456.142631a129.916204 129.916204 0 0 1-129.916204 130.189712z" p-id="5387" fill="#d81e06"></path><path d="M355.171484 460.02692m47.863865 0l0 0q47.863865 0 47.863865 47.863865l0 59.351192q0 47.863865-47.863865 47.863865l0 0q-47.863865 0-47.863865-47.863865l0-59.351192q0-47.863865 47.863865-47.863865Z" p-id="5388" fill="#d81e06"></path><path d="M673.329431 460.02692m47.863864 0l0 0q47.863865 0 47.863865 47.863865l0 59.351192q0 47.863865-47.863865 47.863865l0 0q-47.863865 0-47.863864-47.863865l0-59.351192q0-47.863865 47.863864-47.863865Z" p-id="5389" fill="#d81e06"></path><path d="M562.080134 827.41627c-79.727523 0-142.155678-51.419466-142.155678-116.924584a41.02617 41.02617 0 1 1 82.052339 0c0 16.410468 25.709733 34.872244 60.103339 34.872245s60.171716-18.461776 60.171715-34.872245a41.02617 41.02617 0 0 1 82.05234 0c0 65.641872-62.428155 116.924584-142.224055 116.924584z" p-id="5390" fill="#d81e06"></path></svg>