<?xml version="1.0" standalone="no"?><!DOCTYPE svg PUBLIC "-//W3C//DTD SVG 1.1//EN" "http://www.w3.org/Graphics/SVG/1.1/DTD/svg11.dtd"><svg t="1553559259436" class="icon" style="" viewBox="0 0 1024 1024" version="1.1" xmlns="http://www.w3.org/2000/svg" p-id="6841" xmlns:xlink="http://www.w3.org/1999/xlink" width="200" height="200"><defs><style type="text/css"></style></defs><path d="M947.2 563.2l-6.4-12.8c-6.4-6.4-6.4-6.4-12.8 0l-102.4 102.4-57.6-57.6 96-96c6.4-6.4 6.4-12.8 0-12.8h-6.4l-6.4-6.4c-25.6-12.8-44.8-12.8-70.4-12.8-96 0-179.2 83.2-179.2 179.2 0 19.2 6.4 38.4 12.8 57.6l-108.8 108.8c-12.8 12.8-25.6 32-25.6 51.2 0 19.2 6.4 38.4 25.6 51.2 32 32 76.8 32 108.8 0l108.8-108.8c19.2 6.4 38.4 12.8 57.6 12.8 96 0 179.2-83.2 179.2-179.2 0-25.6-6.4-51.2-12.8-76.8z" fill="#2c2c2c" p-id="6842"></path><path d="M396.8 729.6c0-57.6 12.8-108.8 38.4-160-236.8 12.8-422.4 211.2-422.4 448h537.6c-96-64-153.6-166.4-153.6-288zM460.8 505.6h19.2c51.2-57.6 121.6-102.4 198.4-115.2 25.6-38.4 38.4-89.6 38.4-134.4 0-140.8-115.2-256-256-256s-256 115.2-256 256c0 134.4 115.2 249.6 256 249.6z" fill="#2c2c2c" p-id="6843"></path></svg>