<?xml version="1.0" standalone="no"?><!DOCTYPE svg PUBLIC "-//W3C//DTD SVG 1.1//EN" "http://www.w3.org/Graphics/SVG/1.1/DTD/svg11.dtd"><svg t="1554880103880" class="icon" style="" viewBox="0 0 1024 1024" version="1.1" xmlns="http://www.w3.org/2000/svg" p-id="2903" xmlns:xlink="http://www.w3.org/1999/xlink" width="200" height="200"><defs><style type="text/css"></style></defs><path d="M487.330909 808.494545H302.545455V558.545455l-23.272728 23.272727-99.374545-99.374546 227.84-227.84c-10.938182 0-23.272727-1.629091-33.512727-1.629091A372.363636 372.363636 0 1 0 698.181818 808.494545h-210.850909z" fill="#DFF5E3" p-id="2904"></path><path d="M558.545455 302.545455l-209.454546 209.454545v249.949091h139.636364v-186.181818h189.905454v186.181818H721.454545A372.363636 372.363636 0 0 0 558.545455 302.545455z m46.545454 207.36h-46.545454v-69.818182h46.545454zM245.527273 482.443636L279.272727 515.258182 513.861818 279.272727a369.803636 369.803636 0 0 0-49.803636-16.058182z" fill="#DFF5E3" p-id="2905"></path><path d="M533.876364 622.312727h96.814545v139.636364h-96.814545z" fill="#DFF5E3" p-id="2906"></path><path d="M558.545455 439.156364h46.545454v69.818181h-46.545454z" fill="#3CC451" p-id="2907"></path><path d="M861.090909 372.363636V180.596364l-196.654545-4.421819-89.6-88.66909-167.098182 167.098181-227.84 227.84L279.272727 581.818182l23.272728-23.272727v249.94909h558.545454V570.414545l10.938182 10.938182 98.676364-98.676363z m-46.545454-146.152727V325.818182l-103.563637-101.934546z m-182.923637 535.272727h-97.745454v-139.636363h96.814545z m182.923637 0h-137.541819v-186.181818h-189.672727v186.181818H349.090909V512l209.454546-209.454545 16.523636-16.523637L814.545455 523.869091z m46.545454-256L574.603636 219.229091 513.861818 279.272727 279.272727 515.258182l-33.047272-32.814546 218.298181-218.298181 110.312728-111.01091L607.650909 186.181818 861.090909 438.923636l43.287273 43.287273-32.814546 32.814546z" fill="#040405" p-id="2908"></path></svg>