<?xml version="1.0" standalone="no"?><!DOCTYPE svg PUBLIC "-//W3C//DTD SVG 1.1//EN" "http://www.w3.org/Graphics/SVG/1.1/DTD/svg11.dtd"><svg t="1554454008988" class="icon" style="" viewBox="0 0 1024 1024" version="1.1" xmlns="http://www.w3.org/2000/svg" p-id="650" xmlns:xlink="http://www.w3.org/1999/xlink" width="200" height="200"><defs><style type="text/css"></style></defs><path d="M379.94638 502.750527l60.902508 0 0 60.901909L379.94638 563.652436 379.94638 502.750527zM379.94638 705.758488l60.902508 0 0 60.897911L379.94638 766.656399 379.94638 705.758488zM582.947745 502.750527l60.902908 0 0 60.901909-60.902908 0L582.947745 502.750527zM667.533596 790.338343l-60.89991 0 0 30.452353 60.89991 0c16.91753 0 30.452353-13.534823 30.452353-30.452353l0-30.450355-30.452353 0L667.533596 790.338343zM325.810884 479.066185l0 138.722746 169.164706 0 0-169.1737L356.262438 448.615231C339.345308 448.615231 325.810884 462.149055 325.810884 479.066185zM464.532831 587.337377 356.262438 587.337377 356.262438 479.066185l108.270393 0L464.532831 587.337377zM325.810884 790.338343c0 16.91753 13.534424 30.452353 30.451354 30.452353l138.713352 0 0-169.166705-169.164706 0L325.810884 790.338343zM356.262438 682.073546l108.270393 0 0 108.264796L356.262438 790.338343 356.262438 682.073546zM528.812449 651.623991l108.270792 0 0 30.449355-108.270792 0L528.812449 651.623991zM606.633686 695.60837 572.797627 695.60837l0 33.833061 33.836059 0 0 30.446357 30.449555 0 0-30.446357 60.902908 0 0-33.833061-60.902908 0L606.633686 695.60837zM528.812449 759.887988l30.450355 0 0 60.902908-30.450355 0L528.812449 759.887988zM572.797627 759.887988l30.452553 0 0 30.450355L572.797627 790.338343 572.797627 759.887988zM528.812449 695.60837l30.450355 0 0 30.449355-30.450355 0L528.812449 695.60837zM667.533596 651.623991l30.452353 0 0 30.449355-30.452353 0L667.533596 651.623991zM667.533596 448.615231l-138.721347 0 0 169.1737 169.1737 0L697.98595 479.066185C697.986149 462.149055 684.451126 448.615231 667.533596 448.615231zM667.533596 587.337377 559.262804 587.337377 559.262804 479.066185l108.270792 0L667.533596 587.337377z" p-id="651" fill="#2c2c2c"></path><path d="M811.665499 211.81108 608.590384 211.81108l74.016761-111.026676c7.643074-11.437493 4.546549-26.970258-6.939039-34.611286-11.588943-7.692193-27.021423-4.545526-34.611286 6.942109l-99.887988 149.832494c-0.450255 0.649799-0.500397 1.39886-0.850367 2.097778-0.800225 1.49812-1.399883 2.997264-1.89721 4.64581-0.500397 1.6465-0.848321 3.244904-0.998747 4.944616-0.100284 0.698918-0.450255 1.348718-0.450255 2.14792 0 0.798179 0.401136 1.49812 0.450255 2.297322 0.149403 1.74883 0.497327 3.346211 0.998747 4.994758 0.497327 1.548262 1.046842 2.947122 1.746784 4.295839 0.751107 1.39886 1.598404 2.597151 2.596128 3.845585 1.100054 1.348718 2.248204 2.547009 3.64604 3.64604 0.600681 0.49835 1.000793 1.198292 1.647523 1.647523 0.449231 0.298805 1.000793 0.199545 1.50119 0.449231 3.693112 2.14792 7.738241 3.696182 12.283768 3.746324l0.050142 0 0 0 0 0 224.749764 0 0 649.275503L237.255077 910.98197 237.255077 261.705444l124.910894 0c13.783934 0 24.971741-11.187807 24.971741-24.971741 0-13.784958-11.137665-24.921599-24.971741-24.921599L212.333478 211.812103c-13.783934 0-24.971741 11.186783-24.971741 24.971741l0 699.221032c0 13.783934 11.187807 24.969695 24.971741 24.969695l599.332021 0c13.784958 0 24.972764-11.186783 24.972764-24.969695L836.638263 236.783845C836.638263 222.998887 825.449433 211.81108 811.665499 211.81108L811.665499 211.81108z" p-id="652" fill="#2c2c2c"></path><path d="M467.898061 311.700091l-5.843078 0c-13.784958 0-24.971741 11.187807-24.971741 24.971741 0 13.784958 11.187807 24.971741 24.971741 24.971741l99.887988 0c13.787004 0 24.972764-11.186783 24.972764-24.971741 0-13.784958-11.186783-24.971741-24.972764-24.971741l-35.808554 0L383.591957 74.113975c-7.091512-11.786441-22.425755-15.781428-34.262338-8.590656-11.836583 7.091512-15.682167 22.474874-8.590656 34.262338L467.898061 311.700091 467.898061 311.700091z" p-id="653" fill="#2c2c2c"></path></svg>